<svg xmlns="http://www.w3.org/2000/svg" version="1.1" xmlns:xlink="http://www.w3.org/1999/xlink" xmlns:svgjs="http://svgjs.com/svgjs" width="1440" height="560" preserveAspectRatio="none" viewBox="0 0 1440 560"><g mask="url(&quot;#SvgjsMask1006&quot;)" fill="none"><rect width="1440" height="560" x="0" y="0" fill="rgba(33, 33, 33, 1)"></rect><path d="M-109.99 362.76L-109.99 362.76" stroke="rgba(20, 255, 236, 1)" stroke-width="1.5"></path><path d="M-109.99 362.76L-48.13 515.07" stroke="rgba(20, 255, 236, 1)" stroke-width="1.5"></path><path d="M-109.99 362.76L66.49 407.34" stroke="rgba(20, 255, 236, 1)" stroke-width="1.5"></path><path d="M-109.99 362.76L51.23 527.49" stroke="rgba(20, 255, 236, 1)" stroke-width="1.5"></path><path d="M-48.13 515.07L-48.13 515.07" stroke="rgba(20, 255, 236, 1)" stroke-width="1.5"></path><path d="M-48.13 515.07L51.23 527.49" stroke="rgba(20, 255, 236, 1)" stroke-width="1.5"></path><path d="M-48.13 515.07L-56.68 657.44" stroke="rgba(20, 255, 236, 1)" stroke-width="1.5"></path><path d="M-48.13 515.07L66.49 407.34" stroke="rgba(20, 255, 236, 1)" stroke-width="1.5"></path><path d="M-48.13 515.07L103.09 656.56" stroke="rgba(20, 255, 236, 1)" stroke-width="1.5"></path><path d="M-48.13 515.07L220.35 690.14" stroke="rgba(20, 255, 236, 1)" stroke-width="1.5"></path><path d="M-56.68 657.44L-56.68 657.44" stroke="rgba(20, 255, 236, 1)" stroke-width="1.5"></path><path d="M-56.68 657.44L103.09 656.56" stroke="rgba(20, 255, 236, 1)" stroke-width="1.5"></path><path d="M-56.68 657.44L51.23 527.49" stroke="rgba(20, 255, 236, 1)" stroke-width="1.5"></path><path d="M-56.68 657.44L66.49 407.34" stroke="rgba(20, 255, 236, 1)" stroke-width="1.5"></path><path d="M-56.68 657.44L220.35 690.14" stroke="rgba(20, 255, 236, 1)" stroke-width="1.5"></path><path d="M66.49 407.34L66.49 407.34" stroke="rgba(20, 255, 236, 1)" stroke-width="1.5"></path><path d="M66.49 407.34L51.23 527.49" stroke="rgba(20, 255, 236, 1)" stroke-width="1.5"></path><path d="M66.49 407.34L220.14 338.24" stroke="rgba(20, 255, 236, 1)" stroke-width="1.5"></path><path d="M51.23 527.49L51.23 527.49" stroke="rgba(20, 255, 236, 1)" stroke-width="1.5"></path><path d="M51.23 527.49L103.09 656.56" stroke="rgba(20, 255, 236, 1)" stroke-width="1.5"></path><path d="M103.09 656.56L103.09 656.56" stroke="rgba(20, 255, 236, 1)" stroke-width="1.5"></path><path d="M103.09 656.56L220.35 690.14" stroke="rgba(20, 255, 236, 1)" stroke-width="1.5"></path><path d="M103.09 656.56L66.49 407.34" stroke="rgba(20, 255, 236, 1)" stroke-width="1.5"></path><path d="M220.14 338.24L220.14 338.24" stroke="rgba(20, 255, 236, 1)" stroke-width="1.5"></path><path d="M220.14 338.24L388.22 398.35" stroke="rgba(20, 255, 236, 1)" stroke-width="1.5"></path><path d="M220.14 338.24L51.23 527.49" stroke="rgba(20, 255, 236, 1)" stroke-width="1.5"></path><path d="M220.35 690.14L220.35 690.14" stroke="rgba(20, 255, 236, 1)" stroke-width="1.5"></path><path d="M220.35 690.14L408.24 710.76" stroke="rgba(20, 255, 236, 1)" stroke-width="1.5"></path><path d="M220.35 690.14L367.65 545.14" stroke="rgba(20, 255, 236, 1)" stroke-width="1.5"></path><path d="M388.22 398.35L388.22 398.35" stroke="rgba(20, 255, 236, 1)" stroke-width="1.5"></path><path d="M388.22 398.35L525.49 362.94" stroke="rgba(20, 255, 236, 1)" stroke-width="1.5"></path><path d="M388.22 398.35L367.65 545.14" stroke="rgba(20, 255, 236, 1)" stroke-width="1.5"></path><path d="M388.22 398.35L494.28 557.56" stroke="rgba(20, 255, 236, 1)" stroke-width="1.5"></path><path d="M388.22 398.35L653.59 387.62" stroke="rgba(20, 255, 236, 1)" stroke-width="1.5"></path><path d="M388.22 398.35L646.23 514.43" stroke="rgba(20, 255, 236, 1)" stroke-width="1.5"></path><path d="M367.65 545.14L367.65 545.14" stroke="rgba(20, 255, 236, 1)" stroke-width="1.5"></path><path d="M367.65 545.14L494.28 557.56" stroke="rgba(20, 255, 236, 1)" stroke-width="1.5"></path><path d="M367.65 545.14L408.24 710.76" stroke="rgba(20, 255, 236, 1)" stroke-width="1.5"></path><path d="M367.65 545.14L526.5 671.86" stroke="rgba(20, 255, 236, 1)" stroke-width="1.5"></path><path d="M367.65 545.14L525.49 362.94" stroke="rgba(20, 255, 236, 1)" stroke-width="1.5"></path><path d="M408.24 710.76L408.24 710.76" stroke="rgba(20, 255, 236, 1)" stroke-width="1.5"></path><path d="M408.24 710.76L526.5 671.86" stroke="rgba(20, 255, 236, 1)" stroke-width="1.5"></path><path d="M408.24 710.76L494.28 557.56" stroke="rgba(20, 255, 236, 1)" stroke-width="1.5"></path><path d="M408.24 710.76L671.96 700.31" stroke="rgba(20, 255, 236, 1)" stroke-width="1.5"></path><path d="M525.49 362.94L525.49 362.94" stroke="rgba(20, 255, 236, 1)" stroke-width="1.5"></path><path d="M525.49 362.94L653.59 387.62" stroke="rgba(20, 255, 236, 1)" stroke-width="1.5"></path><path d="M494.28 557.56L494.28 557.56" stroke="rgba(20, 255, 236, 1)" stroke-width="1.5"></path><path d="M494.28 557.56L526.5 671.86" stroke="rgba(20, 255, 236, 1)" stroke-width="1.5"></path><path d="M494.28 557.56L646.23 514.43" stroke="rgba(20, 255, 236, 1)" stroke-width="1.5"></path><path d="M526.5 671.86L526.5 671.86" stroke="rgba(20, 255, 236, 1)" stroke-width="1.5"></path><path d="M526.5 671.86L671.96 700.31" stroke="rgba(20, 255, 236, 1)" stroke-width="1.5"></path><path d="M526.5 671.86L646.23 514.43" stroke="rgba(20, 255, 236, 1)" stroke-width="1.5"></path><path d="M668.86 213.74L668.86 213.74" stroke="rgba(20, 255, 236, 1)" stroke-width="1.5"></path><path d="M668.86 213.74L825.61 225.65" stroke="rgba(20, 255, 236, 1)" stroke-width="1.5"></path><path d="M668.86 213.74L653.59 387.62" stroke="rgba(20, 255, 236, 1)" stroke-width="1.5"></path><path d="M668.86 213.74L803.57 358.86" stroke="rgba(20, 255, 236, 1)" stroke-width="1.5"></path><path d="M668.86 213.74L525.49 362.94" stroke="rgba(20, 255, 236, 1)" stroke-width="1.5"></path><path d="M653.59 387.62L653.59 387.62" stroke="rgba(20, 255, 236, 1)" stroke-width="1.5"></path><path d="M653.59 387.62L646.23 514.43" stroke="rgba(20, 255, 236, 1)" stroke-width="1.5"></path><path d="M653.59 387.62L803.57 358.86" stroke="rgba(20, 255, 236, 1)" stroke-width="1.5"></path><path d="M646.23 514.43L646.23 514.43" stroke="rgba(20, 255, 236, 1)" stroke-width="1.5"></path><path d="M646.23 514.43L671.96 700.31" stroke="rgba(20, 255, 236, 1)" stroke-width="1.5"></path><path d="M646.23 514.43L525.49 362.94" stroke="rgba(20, 255, 236, 1)" stroke-width="1.5"></path><path d="M671.96 700.31L671.96 700.31" stroke="rgba(20, 255, 236, 1)" stroke-width="1.5"></path><path d="M671.96 700.31L823.19 672.74" stroke="rgba(20, 255, 236, 1)" stroke-width="1.5"></path><path d="M671.96 700.31L494.28 557.56" stroke="rgba(20, 255, 236, 1)" stroke-width="1.5"></path><path d="M671.96 700.31L858.13 544.39" stroke="rgba(20, 255, 236, 1)" stroke-width="1.5"></path><path d="M825.61 225.65L825.61 225.65" stroke="rgba(20, 255, 236, 1)" stroke-width="1.5"></path><path d="M825.61 225.65L803.57 358.86" stroke="rgba(20, 255, 236, 1)" stroke-width="1.5"></path><path d="M825.61 225.65L979.19 95.47" stroke="rgba(20, 255, 236, 1)" stroke-width="1.5"></path><path d="M825.61 225.65L988.22 346.04" stroke="rgba(20, 255, 236, 1)" stroke-width="1.5"></path><path d="M803.57 358.86L803.57 358.86" stroke="rgba(20, 255, 236, 1)" stroke-width="1.5"></path><path d="M803.57 358.86L988.22 346.04" stroke="rgba(20, 255, 236, 1)" stroke-width="1.5"></path><path d="M803.57 358.86L942.64 490.74" stroke="rgba(20, 255, 236, 1)" stroke-width="1.5"></path><path d="M803.57 358.86L858.13 544.39" stroke="rgba(20, 255, 236, 1)" stroke-width="1.5"></path><path d="M858.13 544.39L858.13 544.39" stroke="rgba(20, 255, 236, 1)" stroke-width="1.5"></path><path d="M858.13 544.39L942.64 490.74" stroke="rgba(20, 255, 236, 1)" stroke-width="1.5"></path><path d="M858.13 544.39L937.63 645.12" stroke="rgba(20, 255, 236, 1)" stroke-width="1.5"></path><path d="M858.13 544.39L823.19 672.74" stroke="rgba(20, 255, 236, 1)" stroke-width="1.5"></path><path d="M823.19 672.74L823.19 672.74" stroke="rgba(20, 255, 236, 1)" stroke-width="1.5"></path><path d="M823.19 672.74L937.63 645.12" stroke="rgba(20, 255, 236, 1)" stroke-width="1.5"></path><path d="M823.19 672.74L942.64 490.74" stroke="rgba(20, 255, 236, 1)" stroke-width="1.5"></path><path d="M967.85 -86.56L967.85 -86.56" stroke="rgba(20, 255, 236, 1)" stroke-width="1.5"></path><path d="M967.85 -86.56L1105.05 -68.58" stroke="rgba(20, 255, 236, 1)" stroke-width="1.5"></path><path d="M967.85 -86.56L979.19 95.47" stroke="rgba(20, 255, 236, 1)" stroke-width="1.5"></path><path d="M967.85 -86.56L1130.95 75.91" stroke="rgba(20, 255, 236, 1)" stroke-width="1.5"></path><path d="M967.85 -86.56L1287.89 -48.2" stroke="rgba(20, 255, 236, 1)" stroke-width="1.5"></path><path d="M967.85 -86.56L825.61 225.65" stroke="rgba(20, 255, 236, 1)" stroke-width="1.5"></path><path d="M979.19 95.47L979.19 95.47" stroke="rgba(20, 255, 236, 1)" stroke-width="1.5"></path><path d="M979.19 95.47L1130.95 75.91" stroke="rgba(20, 255, 236, 1)" stroke-width="1.5"></path><path d="M988.22 346.04L988.22 346.04" stroke="rgba(20, 255, 236, 1)" stroke-width="1.5"></path><path d="M988.22 346.04L942.64 490.74" stroke="rgba(20, 255, 236, 1)" stroke-width="1.5"></path><path d="M988.22 346.04L1156.13 399.58" stroke="rgba(20, 255, 236, 1)" stroke-width="1.5"></path><path d="M942.64 490.74L942.64 490.74" stroke="rgba(20, 255, 236, 1)" stroke-width="1.5"></path><path d="M937.63 645.12L937.63 645.12" stroke="rgba(20, 255, 236, 1)" stroke-width="1.5"></path><path d="M937.63 645.12L942.64 490.74" stroke="rgba(20, 255, 236, 1)" stroke-width="1.5"></path><path d="M1105.05 -68.58L1105.05 -68.58" stroke="rgba(20, 255, 236, 1)" stroke-width="1.5"></path><path d="M1105.05 -68.58L1130.95 75.91" stroke="rgba(20, 255, 236, 1)" stroke-width="1.5"></path><path d="M1105.05 -68.58L1287.89 -48.2" stroke="rgba(20, 255, 236, 1)" stroke-width="1.5"></path><path d="M1105.05 -68.58L979.19 95.47" stroke="rgba(20, 255, 236, 1)" stroke-width="1.5"></path><path d="M1105.05 -68.58L1282.98 74.75" stroke="rgba(20, 255, 236, 1)" stroke-width="1.5"></path><path d="M1105.05 -68.58L1156.77 206.17" stroke="rgba(20, 255, 236, 1)" stroke-width="1.5"></path><path d="M1130.95 75.91L1130.95 75.91" stroke="rgba(20, 255, 236, 1)" stroke-width="1.5"></path><path d="M1130.95 75.91L1156.77 206.17" stroke="rgba(20, 255, 236, 1)" stroke-width="1.5"></path><path d="M1130.95 75.91L1282.98 74.75" stroke="rgba(20, 255, 236, 1)" stroke-width="1.5"></path><path d="M1130.95 75.91L1287.89 -48.2" stroke="rgba(20, 255, 236, 1)" stroke-width="1.5"></path><path d="M1156.77 206.17L1156.77 206.17" stroke="rgba(20, 255, 236, 1)" stroke-width="1.5"></path><path d="M1156.77 206.17L1294.47 192.45" stroke="rgba(20, 255, 236, 1)" stroke-width="1.5"></path><path d="M1156.77 206.17L1282.98 74.75" stroke="rgba(20, 255, 236, 1)" stroke-width="1.5"></path><path d="M1156.77 206.17L1156.13 399.58" stroke="rgba(20, 255, 236, 1)" stroke-width="1.5"></path><path d="M1156.77 206.17L979.19 95.47" stroke="rgba(20, 255, 236, 1)" stroke-width="1.5"></path><path d="M1156.13 399.58L1156.13 399.58" stroke="rgba(20, 255, 236, 1)" stroke-width="1.5"></path><path d="M1156.13 399.58L1288.41 390.98" stroke="rgba(20, 255, 236, 1)" stroke-width="1.5"></path><path d="M1156.13 399.58L1148.48 536.91" stroke="rgba(20, 255, 236, 1)" stroke-width="1.5"></path><path d="M1148.48 536.91L1148.48 536.91" stroke="rgba(20, 255, 236, 1)" stroke-width="1.5"></path><path d="M1148.48 536.91L1142.47 637.5" stroke="rgba(20, 255, 236, 1)" stroke-width="1.5"></path><path d="M1148.48 536.91L1286.39 492.67" stroke="rgba(20, 255, 236, 1)" stroke-width="1.5"></path><path d="M1142.47 637.5L1142.47 637.5" stroke="rgba(20, 255, 236, 1)" stroke-width="1.5"></path><path d="M1142.47 637.5L1286.36 694.11" stroke="rgba(20, 255, 236, 1)" stroke-width="1.5"></path><path d="M1142.47 637.5L1286.39 492.67" stroke="rgba(20, 255, 236, 1)" stroke-width="1.5"></path><path d="M1142.47 637.5L937.63 645.12" stroke="rgba(20, 255, 236, 1)" stroke-width="1.5"></path><path d="M1142.47 637.5L1156.13 399.58" stroke="rgba(20, 255, 236, 1)" stroke-width="1.5"></path><path d="M1142.47 637.5L942.64 490.74" stroke="rgba(20, 255, 236, 1)" stroke-width="1.5"></path><path d="M1287.89 -48.2L1287.89 -48.2" stroke="rgba(20, 255, 236, 1)" stroke-width="1.5"></path><path d="M1287.89 -48.2L1403.55 -61.13" stroke="rgba(20, 255, 236, 1)" stroke-width="1.5"></path><path d="M1287.89 -48.2L1282.98 74.75" stroke="rgba(20, 255, 236, 1)" stroke-width="1.5"></path><path d="M1282.98 74.75L1282.98 74.75" stroke="rgba(20, 255, 236, 1)" stroke-width="1.5"></path><path d="M1282.98 74.75L1294.47 192.45" stroke="rgba(20, 255, 236, 1)" stroke-width="1.5"></path><path d="M1282.98 74.75L1453.55 64.14" stroke="rgba(20, 255, 236, 1)" stroke-width="1.5"></path><path d="M1282.98 74.75L1403.55 -61.13" stroke="rgba(20, 255, 236, 1)" stroke-width="1.5"></path><path d="M1294.47 192.45L1294.47 192.45" stroke="rgba(20, 255, 236, 1)" stroke-width="1.5"></path><path d="M1294.47 192.45L1430.08 216.19" stroke="rgba(20, 255, 236, 1)" stroke-width="1.5"></path><path d="M1288.41 390.98L1288.41 390.98" stroke="rgba(20, 255, 236, 1)" stroke-width="1.5"></path><path d="M1288.41 390.98L1388.54 374.95" stroke="rgba(20, 255, 236, 1)" stroke-width="1.5"></path><path d="M1288.41 390.98L1286.39 492.67" stroke="rgba(20, 255, 236, 1)" stroke-width="1.5"></path><path d="M1286.39 492.67L1286.39 492.67" stroke="rgba(20, 255, 236, 1)" stroke-width="1.5"></path><path d="M1286.39 492.67L1408.96 516.26" stroke="rgba(20, 255, 236, 1)" stroke-width="1.5"></path><path d="M1286.39 492.67L1388.54 374.95" stroke="rgba(20, 255, 236, 1)" stroke-width="1.5"></path><path d="M1286.39 492.67L1156.13 399.58" stroke="rgba(20, 255, 236, 1)" stroke-width="1.5"></path><path d="M1286.36 694.11L1286.36 694.11" stroke="rgba(20, 255, 236, 1)" stroke-width="1.5"></path><path d="M1286.36 694.11L1419.78 702.71" stroke="rgba(20, 255, 236, 1)" stroke-width="1.5"></path><path d="M1286.36 694.11L1286.39 492.67" stroke="rgba(20, 255, 236, 1)" stroke-width="1.5"></path><path d="M1286.36 694.11L1148.48 536.91" stroke="rgba(20, 255, 236, 1)" stroke-width="1.5"></path><path d="M1403.55 -61.13L1403.55 -61.13" stroke="rgba(20, 255, 236, 1)" stroke-width="1.5"></path><path d="M1403.55 -61.13L1453.55 64.14" stroke="rgba(20, 255, 236, 1)" stroke-width="1.5"></path><path d="M1403.55 -61.13L1563.54 -81.63" stroke="rgba(20, 255, 236, 1)" stroke-width="1.5"></path><path d="M1453.55 64.14L1453.55 64.14" stroke="rgba(20, 255, 236, 1)" stroke-width="1.5"></path><path d="M1453.55 64.14L1567.33 53.17" stroke="rgba(20, 255, 236, 1)" stroke-width="1.5"></path><path d="M1453.55 64.14L1430.08 216.19" stroke="rgba(20, 255, 236, 1)" stroke-width="1.5"></path><path d="M1453.55 64.14L1563.54 -81.63" stroke="rgba(20, 255, 236, 1)" stroke-width="1.5"></path><path d="M1430.08 216.19L1430.08 216.19" stroke="rgba(20, 255, 236, 1)" stroke-width="1.5"></path><path d="M1430.08 216.19L1388.54 374.95" stroke="rgba(20, 255, 236, 1)" stroke-width="1.5"></path><path d="M1430.08 216.19L1603.66 234.32" stroke="rgba(20, 255, 236, 1)" stroke-width="1.5"></path><path d="M1430.08 216.19L1282.98 74.75" stroke="rgba(20, 255, 236, 1)" stroke-width="1.5"></path><path d="M1430.08 216.19L1567.33 53.17" stroke="rgba(20, 255, 236, 1)" stroke-width="1.5"></path><path d="M1388.54 374.95L1388.54 374.95" stroke="rgba(20, 255, 236, 1)" stroke-width="1.5"></path><path d="M1388.54 374.95L1408.96 516.26" stroke="rgba(20, 255, 236, 1)" stroke-width="1.5"></path><path d="M1388.54 374.95L1579.23 388.78" stroke="rgba(20, 255, 236, 1)" stroke-width="1.5"></path><path d="M1408.96 516.26L1408.96 516.26" stroke="rgba(20, 255, 236, 1)" stroke-width="1.5"></path><path d="M1408.96 516.26L1551.89 548.55" stroke="rgba(20, 255, 236, 1)" stroke-width="1.5"></path><path d="M1408.96 516.26L1288.41 390.98" stroke="rgba(20, 255, 236, 1)" stroke-width="1.5"></path><path d="M1408.96 516.26L1419.78 702.71" stroke="rgba(20, 255, 236, 1)" stroke-width="1.5"></path><path d="M1419.78 702.71L1419.78 702.71" stroke="rgba(20, 255, 236, 1)" stroke-width="1.5"></path><path d="M1419.78 702.71L1600.29 658.43" stroke="rgba(20, 255, 236, 1)" stroke-width="1.5"></path><path d="M1563.54 -81.63L1563.54 -81.63" stroke="rgba(20, 255, 236, 1)" stroke-width="1.5"></path><path d="M1563.54 -81.63L1567.33 53.17" stroke="rgba(20, 255, 236, 1)" stroke-width="1.5"></path><path d="M1563.54 -81.63L1287.89 -48.2" stroke="rgba(20, 255, 236, 1)" stroke-width="1.5"></path><path d="M1567.33 53.17L1567.33 53.17" stroke="rgba(20, 255, 236, 1)" stroke-width="1.5"></path><path d="M1567.33 53.17L1603.66 234.32" stroke="rgba(20, 255, 236, 1)" stroke-width="1.5"></path><path d="M1603.66 234.32L1603.66 234.32" stroke="rgba(20, 255, 236, 1)" stroke-width="1.5"></path><path d="M1603.66 234.32L1579.23 388.78" stroke="rgba(20, 255, 236, 1)" stroke-width="1.5"></path><path d="M1603.66 234.32L1453.55 64.14" stroke="rgba(20, 255, 236, 1)" stroke-width="1.5"></path><path d="M1579.23 388.78L1579.23 388.78" stroke="rgba(20, 255, 236, 1)" stroke-width="1.5"></path><path d="M1579.23 388.78L1551.89 548.55" stroke="rgba(20, 255, 236, 1)" stroke-width="1.5"></path><path d="M1551.89 548.55L1551.89 548.55" stroke="rgba(20, 255, 236, 1)" stroke-width="1.5"></path><path d="M1551.89 548.55L1600.29 658.43" stroke="rgba(20, 255, 236, 1)" stroke-width="1.5"></path><path d="M1600.29 658.43L1600.29 658.43" stroke="rgba(20, 255, 236, 1)" stroke-width="1.5"></path><path d="M1600.29 658.43L1408.96 516.26" stroke="rgba(20, 255, 236, 1)" stroke-width="1.5"></path><circle r="5" cx="-109.99" cy="362.76" fill="rgba(20, 255, 236, 1)"></circle><circle r="5" cx="-48.13" cy="515.07" fill="rgba(20, 255, 236, 1)"></circle><circle r="5" cx="-56.68" cy="657.44" fill="rgba(20, 255, 236, 1)"></circle><circle r="5" cx="66.49" cy="407.34" fill="rgba(20, 255, 236, 1)"></circle><circle r="5" cx="51.23" cy="527.49" fill="rgba(20, 255, 236, 1)"></circle><circle r="5" cx="103.09" cy="656.56" fill="rgba(20, 255, 236, 1)"></circle><circle r="5" cx="220.14" cy="338.24" fill="rgba(20, 255, 236, 1)"></circle><circle r="5" cx="220.35" cy="690.14" fill="rgba(20, 255, 236, 1)"></circle><circle r="5" cx="388.22" cy="398.35" fill="rgba(20, 255, 236, 1)"></circle><circle r="5" cx="367.65" cy="545.14" fill="rgba(20, 255, 236, 1)"></circle><circle r="5" cx="408.24" cy="710.76" fill="rgba(20, 255, 236, 1)"></circle><circle r="5" cx="525.49" cy="362.94" fill="rgba(20, 255, 236, 1)"></circle><circle r="5" cx="494.28" cy="557.56" fill="rgba(20, 255, 236, 1)"></circle><circle r="5" cx="526.5" cy="671.86" fill="rgba(20, 255, 236, 1)"></circle><circle r="5" cx="668.86" cy="213.74" fill="rgba(20, 255, 236, 1)"></circle><circle r="5" cx="653.59" cy="387.62" fill="rgba(20, 255, 236, 1)"></circle><circle r="5" cx="646.23" cy="514.43" fill="rgba(20, 255, 236, 1)"></circle><circle r="5" cx="671.96" cy="700.31" fill="rgba(20, 255, 236, 1)"></circle><circle r="5" cx="825.61" cy="225.65" fill="rgba(20, 255, 236, 1)"></circle><circle r="5" cx="803.57" cy="358.86" fill="rgba(20, 255, 236, 1)"></circle><circle r="5" cx="858.13" cy="544.39" fill="rgba(20, 255, 236, 1)"></circle><circle r="5" cx="823.19" cy="672.74" fill="rgba(20, 255, 236, 1)"></circle><circle r="5" cx="967.85" cy="-86.56" fill="rgba(20, 255, 236, 1)"></circle><circle r="5" cx="979.19" cy="95.47" fill="rgba(20, 255, 236, 1)"></circle><circle r="5" cx="988.22" cy="346.04" fill="rgba(20, 255, 236, 1)"></circle><circle r="5" cx="942.64" cy="490.74" fill="rgba(20, 255, 236, 1)"></circle><circle r="5" cx="937.63" cy="645.12" fill="rgba(20, 255, 236, 1)"></circle><circle r="5" cx="1105.05" cy="-68.58" fill="rgba(20, 255, 236, 1)"></circle><circle r="5" cx="1130.95" cy="75.91" fill="rgba(20, 255, 236, 1)"></circle><circle r="5" cx="1156.77" cy="206.17" fill="rgba(20, 255, 236, 1)"></circle><circle r="5" cx="1156.13" cy="399.58" fill="rgba(20, 255, 236, 1)"></circle><circle r="5" cx="1148.48" cy="536.91" fill="rgba(20, 255, 236, 1)"></circle><circle r="5" cx="1142.47" cy="637.5" fill="rgba(20, 255, 236, 1)"></circle><circle r="5" cx="1287.89" cy="-48.2" fill="rgba(20, 255, 236, 1)"></circle><circle r="5" cx="1282.98" cy="74.75" fill="rgba(20, 255, 236, 1)"></circle><circle r="5" cx="1294.47" cy="192.45" fill="rgba(20, 255, 236, 1)"></circle><circle r="5" cx="1288.41" cy="390.98" fill="rgba(20, 255, 236, 1)"></circle><circle r="5" cx="1286.39" cy="492.67" fill="rgba(20, 255, 236, 1)"></circle><circle r="5" cx="1286.36" cy="694.11" fill="rgba(20, 255, 236, 1)"></circle><circle r="5" cx="1403.55" cy="-61.13" fill="rgba(20, 255, 236, 1)"></circle><circle r="5" cx="1453.55" cy="64.14" fill="rgba(20, 255, 236, 1)"></circle><circle r="5" cx="1430.08" cy="216.19" fill="rgba(20, 255, 236, 1)"></circle><circle r="5" cx="1388.54" cy="374.95" fill="rgba(20, 255, 236, 1)"></circle><circle r="5" cx="1408.96" cy="516.26" fill="rgba(20, 255, 236, 1)"></circle><circle r="5" cx="1419.78" cy="702.71" fill="rgba(20, 255, 236, 1)"></circle><circle r="5" cx="1563.54" cy="-81.63" fill="rgba(20, 255, 236, 1)"></circle><circle r="5" cx="1567.33" cy="53.17" fill="rgba(20, 255, 236, 1)"></circle><circle r="5" cx="1603.66" cy="234.32" fill="rgba(20, 255, 236, 1)"></circle><circle r="5" cx="1579.23" cy="388.78" fill="rgba(20, 255, 236, 1)"></circle><circle r="5" cx="1551.89" cy="548.55" fill="rgba(20, 255, 236, 1)"></circle><circle r="5" cx="1600.29" cy="658.43" fill="rgba(20, 255, 236, 1)"></circle><path d="M97.09 709.99L97.09 709.99" stroke="hsl(182.29999999999995, 80.3%, 33.6%)" stroke-width="1.5"></path><path d="M97.09 709.99L228.23 699.52" stroke="hsl(182.29999999999995, 80.3%, 33.6%)" stroke-width="1.5"></path><path d="M97.09 709.99L-38.58 680.1" stroke="hsl(182.29999999999995, 80.3%, 33.6%)" stroke-width="1.5"></path><path d="M97.09 709.99L90.57 510.78" stroke="hsl(182.29999999999995, 80.3%, 33.6%)" stroke-width="1.5"></path><path d="M97.09 709.99L366.52 673.61" stroke="hsl(182.29999999999995, 80.3%, 33.6%)" stroke-width="1.5"></path><path d="M97.09 709.99L397.8 491.03" stroke="hsl(182.29999999999995, 80.3%, 33.6%)" stroke-width="1.5"></path><path d="M366.52 673.61L366.52 673.61" stroke="hsl(182.29999999999995, 80.3%, 33.6%)" stroke-width="1.5"></path><path d="M366.52 673.61L228.23 699.52" stroke="hsl(182.29999999999995, 80.3%, 33.6%)" stroke-width="1.5"></path><path d="M366.52 673.61L532.99 701.75" stroke="hsl(182.29999999999995, 80.3%, 33.6%)" stroke-width="1.5"></path><path d="M821.5 524.5L821.5 524.5" stroke="hsl(182.29999999999995, 80.3%, 33.6%)" stroke-width="1.5"></path><path d="M821.5 524.5L804.95 399.8" stroke="hsl(182.29999999999995, 80.3%, 33.6%)" stroke-width="1.5"></path><path d="M821.5 524.5L960.81 516.51" stroke="hsl(182.29999999999995, 80.3%, 33.6%)" stroke-width="1.5"></path><path d="M821.5 524.5L806.83 672.1" stroke="hsl(182.29999999999995, 80.3%, 33.6%)" stroke-width="1.5"></path><path d="M806.83 672.1L806.83 672.1" stroke="hsl(182.29999999999995, 80.3%, 33.6%)" stroke-width="1.5"></path><path d="M806.83 672.1L676.79 690.88" stroke="hsl(182.29999999999995, 80.3%, 33.6%)" stroke-width="1.5"></path><path d="M1114.56 203.95L1114.56 203.95" stroke="hsl(182.29999999999995, 80.3%, 33.6%)" stroke-width="1.5"></path><path d="M1114.56 203.95L1261.71 221.76" stroke="hsl(182.29999999999995, 80.3%, 33.6%)" stroke-width="1.5"></path><path d="M1114.56 203.95L1133.75 408.37" stroke="hsl(182.29999999999995, 80.3%, 33.6%)" stroke-width="1.5"></path><path d="M1114.56 203.95L981.08 404.43" stroke="hsl(182.29999999999995, 80.3%, 33.6%)" stroke-width="1.5"></path><path d="M1114.56 203.95L1300.24 45.71" stroke="hsl(182.29999999999995, 80.3%, 33.6%)" stroke-width="1.5"></path><path d="M1417.07 -46.29L1417.07 -46.29" stroke="hsl(182.29999999999995, 80.3%, 33.6%)" stroke-width="1.5"></path><path d="M1417.07 -46.29L1388.09 60.03" stroke="hsl(182.29999999999995, 80.3%, 33.6%)" stroke-width="1.5"></path><path d="M1417.07 -46.29L1300.24 45.71" stroke="hsl(182.29999999999995, 80.3%, 33.6%)" stroke-width="1.5"></path><path d="M1573.98 108.2L1573.98 108.2" stroke="hsl(182.29999999999995, 80.3%, 33.6%)" stroke-width="1.5"></path><path d="M1573.98 108.2L1590.19 234.98" stroke="hsl(182.29999999999995, 80.3%, 33.6%)" stroke-width="1.5"></path><path d="M1573.98 108.2L1600.77 -52.49" stroke="hsl(182.29999999999995, 80.3%, 33.6%)" stroke-width="1.5"></path><path d="M1573.98 108.2L1388.09 60.03" stroke="hsl(182.29999999999995, 80.3%, 33.6%)" stroke-width="1.5"></path><path d="M-38.58 680.1L-38.58 680.1" stroke="hsl(182.29999999999995, 80.3%, 33.6%)" stroke-width="1.5"></path><path d="M-38.58 680.1L90.57 510.78" stroke="hsl(182.29999999999995, 80.3%, 33.6%)" stroke-width="1.5"></path><path d="M-38.58 680.1L228.23 699.52" stroke="hsl(182.29999999999995, 80.3%, 33.6%)" stroke-width="1.5"></path><path d="M-38.58 680.1L366.52 673.61" stroke="hsl(182.29999999999995, 80.3%, 33.6%)" stroke-width="1.5"></path><path d="M-38.58 680.1L397.8 491.03" stroke="hsl(182.29999999999995, 80.3%, 33.6%)" stroke-width="1.5"></path><path d="M90.57 510.78L90.57 510.78" stroke="hsl(182.29999999999995, 80.3%, 33.6%)" stroke-width="1.5"></path><path d="M90.57 510.78L228.23 699.52" stroke="hsl(182.29999999999995, 80.3%, 33.6%)" stroke-width="1.5"></path><path d="M90.57 510.78L397.8 491.03" stroke="hsl(182.29999999999995, 80.3%, 33.6%)" stroke-width="1.5"></path><path d="M90.57 510.78L366.52 673.61" stroke="hsl(182.29999999999995, 80.3%, 33.6%)" stroke-width="1.5"></path><path d="M228.23 699.52L228.23 699.52" stroke="hsl(182.29999999999995, 80.3%, 33.6%)" stroke-width="1.5"></path><path d="M397.8 491.03L397.8 491.03" stroke="hsl(182.29999999999995, 80.3%, 33.6%)" stroke-width="1.5"></path><path d="M397.8 491.03L488.16 496.15" stroke="hsl(182.29999999999995, 80.3%, 33.6%)" stroke-width="1.5"></path><path d="M397.8 491.03L366.52 673.61" stroke="hsl(182.29999999999995, 80.3%, 33.6%)" stroke-width="1.5"></path><path d="M397.8 491.03L532.99 701.75" stroke="hsl(182.29999999999995, 80.3%, 33.6%)" stroke-width="1.5"></path><path d="M397.8 491.03L655.14 527.23" stroke="hsl(182.29999999999995, 80.3%, 33.6%)" stroke-width="1.5"></path><path d="M397.8 491.03L228.23 699.52" stroke="hsl(182.29999999999995, 80.3%, 33.6%)" stroke-width="1.5"></path><path d="M488.16 496.15L488.16 496.15" stroke="hsl(182.29999999999995, 80.3%, 33.6%)" stroke-width="1.5"></path><path d="M488.16 496.15L655.14 527.23" stroke="hsl(182.29999999999995, 80.3%, 33.6%)" stroke-width="1.5"></path><path d="M532.99 701.75L532.99 701.75" stroke="hsl(182.29999999999995, 80.3%, 33.6%)" stroke-width="1.5"></path><path d="M532.99 701.75L676.79 690.88" stroke="hsl(182.29999999999995, 80.3%, 33.6%)" stroke-width="1.5"></path><path d="M655.14 527.23L655.14 527.23" stroke="hsl(182.29999999999995, 80.3%, 33.6%)" stroke-width="1.5"></path><path d="M655.14 527.23L676.79 690.88" stroke="hsl(182.29999999999995, 80.3%, 33.6%)" stroke-width="1.5"></path><path d="M655.14 527.23L821.5 524.5" stroke="hsl(182.29999999999995, 80.3%, 33.6%)" stroke-width="1.5"></path><path d="M655.14 527.23L804.95 399.8" stroke="hsl(182.29999999999995, 80.3%, 33.6%)" stroke-width="1.5"></path><path d="M655.14 527.23L806.83 672.1" stroke="hsl(182.29999999999995, 80.3%, 33.6%)" stroke-width="1.5"></path><path d="M655.14 527.23L532.99 701.75" stroke="hsl(182.29999999999995, 80.3%, 33.6%)" stroke-width="1.5"></path><path d="M676.79 690.88L676.79 690.88" stroke="hsl(182.29999999999995, 80.3%, 33.6%)" stroke-width="1.5"></path><path d="M804.95 399.8L804.95 399.8" stroke="hsl(182.29999999999995, 80.3%, 33.6%)" stroke-width="1.5"></path><path d="M804.95 399.8L981.08 404.43" stroke="hsl(182.29999999999995, 80.3%, 33.6%)" stroke-width="1.5"></path><path d="M804.95 399.8L960.81 516.51" stroke="hsl(182.29999999999995, 80.3%, 33.6%)" stroke-width="1.5"></path><path d="M804.95 399.8L806.83 672.1" stroke="hsl(182.29999999999995, 80.3%, 33.6%)" stroke-width="1.5"></path><path d="M981.08 404.43L981.08 404.43" stroke="hsl(182.29999999999995, 80.3%, 33.6%)" stroke-width="1.5"></path><path d="M981.08 404.43L960.81 516.51" stroke="hsl(182.29999999999995, 80.3%, 33.6%)" stroke-width="1.5"></path><path d="M981.08 404.43L1133.75 408.37" stroke="hsl(182.29999999999995, 80.3%, 33.6%)" stroke-width="1.5"></path><path d="M960.81 516.51L960.81 516.51" stroke="hsl(182.29999999999995, 80.3%, 33.6%)" stroke-width="1.5"></path><path d="M960.81 516.51L974.55 652.69" stroke="hsl(182.29999999999995, 80.3%, 33.6%)" stroke-width="1.5"></path><path d="M960.81 516.51L1141.99 517.6" stroke="hsl(182.29999999999995, 80.3%, 33.6%)" stroke-width="1.5"></path><path d="M974.55 652.69L974.55 652.69" stroke="hsl(182.29999999999995, 80.3%, 33.6%)" stroke-width="1.5"></path><path d="M974.55 652.69L806.83 672.1" stroke="hsl(182.29999999999995, 80.3%, 33.6%)" stroke-width="1.5"></path><path d="M974.55 652.69L1149.35 661.49" stroke="hsl(182.29999999999995, 80.3%, 33.6%)" stroke-width="1.5"></path><path d="M974.55 652.69L821.5 524.5" stroke="hsl(182.29999999999995, 80.3%, 33.6%)" stroke-width="1.5"></path><path d="M974.55 652.69L1141.99 517.6" stroke="hsl(182.29999999999995, 80.3%, 33.6%)" stroke-width="1.5"></path><path d="M1133.75 408.37L1133.75 408.37" stroke="hsl(182.29999999999995, 80.3%, 33.6%)" stroke-width="1.5"></path><path d="M1133.75 408.37L1141.99 517.6" stroke="hsl(182.29999999999995, 80.3%, 33.6%)" stroke-width="1.5"></path><path d="M1133.75 408.37L1263.08 401.82" stroke="hsl(182.29999999999995, 80.3%, 33.6%)" stroke-width="1.5"></path><path d="M1141.99 517.6L1141.99 517.6" stroke="hsl(182.29999999999995, 80.3%, 33.6%)" stroke-width="1.5"></path><path d="M1141.99 517.6L1254.21 508.31" stroke="hsl(182.29999999999995, 80.3%, 33.6%)" stroke-width="1.5"></path><path d="M1141.99 517.6L1149.35 661.49" stroke="hsl(182.29999999999995, 80.3%, 33.6%)" stroke-width="1.5"></path><path d="M1149.35 661.49L1149.35 661.49" stroke="hsl(182.29999999999995, 80.3%, 33.6%)" stroke-width="1.5"></path><path d="M1149.35 661.49L1279.7 647.86" stroke="hsl(182.29999999999995, 80.3%, 33.6%)" stroke-width="1.5"></path><path d="M1246.33 -39.14L1246.33 -39.14" stroke="hsl(182.29999999999995, 80.3%, 33.6%)" stroke-width="1.5"></path><path d="M1246.33 -39.14L1300.24 45.71" stroke="hsl(182.29999999999995, 80.3%, 33.6%)" stroke-width="1.5"></path><path d="M1246.33 -39.14L1417.07 -46.29" stroke="hsl(182.29999999999995, 80.3%, 33.6%)" stroke-width="1.5"></path><path d="M1300.24 45.71L1300.24 45.71" stroke="hsl(182.29999999999995, 80.3%, 33.6%)" stroke-width="1.5"></path><path d="M1300.24 45.71L1388.09 60.03" stroke="hsl(182.29999999999995, 80.3%, 33.6%)" stroke-width="1.5"></path><path d="M1261.71 221.76L1261.71 221.76" stroke="hsl(182.29999999999995, 80.3%, 33.6%)" stroke-width="1.5"></path><path d="M1261.71 221.76L1392.92 261.2" stroke="hsl(182.29999999999995, 80.3%, 33.6%)" stroke-width="1.5"></path><path d="M1263.08 401.82L1263.08 401.82" stroke="hsl(182.29999999999995, 80.3%, 33.6%)" stroke-width="1.5"></path><path d="M1263.08 401.82L1254.21 508.31" stroke="hsl(182.29999999999995, 80.3%, 33.6%)" stroke-width="1.5"></path><path d="M1254.21 508.31L1254.21 508.31" stroke="hsl(182.29999999999995, 80.3%, 33.6%)" stroke-width="1.5"></path><path d="M1279.7 647.86L1279.7 647.86" stroke="hsl(182.29999999999995, 80.3%, 33.6%)" stroke-width="1.5"></path><path d="M1279.7 647.86L1399.69 680.67" stroke="hsl(182.29999999999995, 80.3%, 33.6%)" stroke-width="1.5"></path><path d="M1388.09 60.03L1388.09 60.03" stroke="hsl(182.29999999999995, 80.3%, 33.6%)" stroke-width="1.5"></path><path d="M1388.09 60.03L1246.33 -39.14" stroke="hsl(182.29999999999995, 80.3%, 33.6%)" stroke-width="1.5"></path><path d="M1392.92 261.2L1392.92 261.2" stroke="hsl(182.29999999999995, 80.3%, 33.6%)" stroke-width="1.5"></path><path d="M1396.86 402.94L1396.86 402.94" stroke="hsl(182.29999999999995, 80.3%, 33.6%)" stroke-width="1.5"></path><path d="M1396.86 402.94L1263.08 401.82" stroke="hsl(182.29999999999995, 80.3%, 33.6%)" stroke-width="1.5"></path><path d="M1396.86 402.94L1392.92 261.2" stroke="hsl(182.29999999999995, 80.3%, 33.6%)" stroke-width="1.5"></path><path d="M1396.86 402.94L1412.31 547.28" stroke="hsl(182.29999999999995, 80.3%, 33.6%)" stroke-width="1.5"></path><path d="M1412.31 547.28L1412.31 547.28" stroke="hsl(182.29999999999995, 80.3%, 33.6%)" stroke-width="1.5"></path><path d="M1412.31 547.28L1399.69 680.67" stroke="hsl(182.29999999999995, 80.3%, 33.6%)" stroke-width="1.5"></path><path d="M1412.31 547.28L1254.21 508.31" stroke="hsl(182.29999999999995, 80.3%, 33.6%)" stroke-width="1.5"></path><path d="M1412.31 547.28L1279.7 647.86" stroke="hsl(182.29999999999995, 80.3%, 33.6%)" stroke-width="1.5"></path><path d="M1412.31 547.28L1575.04 510.71" stroke="hsl(182.29999999999995, 80.3%, 33.6%)" stroke-width="1.5"></path><path d="M1412.31 547.28L1263.08 401.82" stroke="hsl(182.29999999999995, 80.3%, 33.6%)" stroke-width="1.5"></path><path d="M1399.69 680.67L1399.69 680.67" stroke="hsl(182.29999999999995, 80.3%, 33.6%)" stroke-width="1.5"></path><path d="M1600.77 -52.49L1600.77 -52.49" stroke="hsl(182.29999999999995, 80.3%, 33.6%)" stroke-width="1.5"></path><path d="M1600.77 -52.49L1417.07 -46.29" stroke="hsl(182.29999999999995, 80.3%, 33.6%)" stroke-width="1.5"></path><path d="M1600.77 -52.49L1388.09 60.03" stroke="hsl(182.29999999999995, 80.3%, 33.6%)" stroke-width="1.5"></path><path d="M1600.77 -52.49L1590.19 234.98" stroke="hsl(182.29999999999995, 80.3%, 33.6%)" stroke-width="1.5"></path><path d="M1600.77 -52.49L1300.24 45.71" stroke="hsl(182.29999999999995, 80.3%, 33.6%)" stroke-width="1.5"></path><path d="M1590.19 234.98L1590.19 234.98" stroke="hsl(182.29999999999995, 80.3%, 33.6%)" stroke-width="1.5"></path><path d="M1590.19 234.98L1392.92 261.2" stroke="hsl(182.29999999999995, 80.3%, 33.6%)" stroke-width="1.5"></path><path d="M1590.19 234.98L1396.86 402.94" stroke="hsl(182.29999999999995, 80.3%, 33.6%)" stroke-width="1.5"></path><path d="M1575.04 510.71L1575.04 510.71" stroke="hsl(182.29999999999995, 80.3%, 33.6%)" stroke-width="1.5"></path><path d="M1575.04 510.71L1396.86 402.94" stroke="hsl(182.29999999999995, 80.3%, 33.6%)" stroke-width="1.5"></path><path d="M1575.04 510.71L1399.69 680.67" stroke="hsl(182.29999999999995, 80.3%, 33.6%)" stroke-width="1.5"></path><path d="M1575.04 510.71L1590.19 234.98" stroke="hsl(182.29999999999995, 80.3%, 33.6%)" stroke-width="1.5"></path><path d="M1575.04 510.71L1392.92 261.2" stroke="hsl(182.29999999999995, 80.3%, 33.6%)" stroke-width="1.5"></path><circle r="25" cx="97.09" cy="709.99" fill="url(#SvgjsRadialGradient1007)"></circle><circle r="25" cx="366.52" cy="673.61" fill="url(#SvgjsRadialGradient1007)"></circle><circle r="25" cx="821.5" cy="524.5" fill="url(#SvgjsRadialGradient1007)"></circle><circle r="25" cx="806.83" cy="672.1" fill="url(#SvgjsRadialGradient1007)"></circle><circle r="25" cx="1114.56" cy="203.95" fill="url(#SvgjsRadialGradient1007)"></circle><circle r="25" cx="1417.07" cy="-46.29" fill="url(#SvgjsRadialGradient1007)"></circle><circle r="25" cx="1573.98" cy="108.2" fill="url(#SvgjsRadialGradient1007)"></circle><circle r="5" cx="-38.58" cy="680.1" fill="#86b9bb"></circle><circle r="5" cx="90.57" cy="510.78" fill="#86b9bb"></circle><circle r="5" cx="228.23" cy="699.52" fill="#86b9bb"></circle><circle r="5" cx="397.8" cy="491.03" fill="#86b9bb"></circle><circle r="5" cx="488.16" cy="496.15" fill="#86b9bb"></circle><circle r="5" cx="532.99" cy="701.75" fill="#86b9bb"></circle><circle r="5" cx="655.14" cy="527.23" fill="#86b9bb"></circle><circle r="5" cx="676.79" cy="690.88" fill="#86b9bb"></circle><circle r="5" cx="804.95" cy="399.8" fill="#86b9bb"></circle><circle r="5" cx="981.08" cy="404.43" fill="#86b9bb"></circle><circle r="5" cx="960.81" cy="516.51" fill="#86b9bb"></circle><circle r="5" cx="974.55" cy="652.69" fill="#86b9bb"></circle><circle r="5" cx="1133.75" cy="408.37" fill="#86b9bb"></circle><circle r="5" cx="1141.99" cy="517.6" fill="#86b9bb"></circle><circle r="5" cx="1149.35" cy="661.49" fill="#86b9bb"></circle><circle r="5" cx="1246.33" cy="-39.14" fill="#86b9bb"></circle><circle r="5" cx="1300.24" cy="45.71" fill="#86b9bb"></circle><circle r="5" cx="1261.71" cy="221.76" fill="#86b9bb"></circle><circle r="5" cx="1263.08" cy="401.82" fill="#86b9bb"></circle><circle r="5" cx="1254.21" cy="508.31" fill="#86b9bb"></circle><circle r="5" cx="1279.7" cy="647.86" fill="#86b9bb"></circle><circle r="5" cx="1388.09" cy="60.03" fill="#86b9bb"></circle><circle r="5" cx="1392.92" cy="261.2" fill="#86b9bb"></circle><circle r="5" cx="1396.86" cy="402.94" fill="#86b9bb"></circle><circle r="5" cx="1412.31" cy="547.28" fill="#86b9bb"></circle><circle r="5" cx="1399.69" cy="680.67" fill="#86b9bb"></circle><circle r="5" cx="1600.77" cy="-52.49" fill="#86b9bb"></circle><circle r="5" cx="1590.19" cy="234.98" fill="#86b9bb"></circle><circle r="5" cx="1575.04" cy="510.71" fill="#86b9bb"></circle></g><defs><mask id="SvgjsMask1006"><rect width="1440" height="560" fill="#ffffff"></rect></mask><radialGradient id="SvgjsRadialGradient1007"><stop stop-color="#ffffff" offset="0.1"></stop><stop stop-color="rgba(13, 115, 119, 1)" offset="0.2"></stop><stop stop-color="rgba(13, 115, 119, 0)" offset="1"></stop></radialGradient></defs></svg>